<?xml version="1.0" standalone="no"?>

<svg version="1.0" xmlns="http://www.w3.org/2000/svg"
 width="800" height="533" viewBox="0 0 4000.000000 2667.000000"
 preserveAspectRatio="xMidYMid meet">

<g transform="translate(0.000000,2667.000000) scale(0.100000,-0.100000)"
fill="#333338" stroke="none">
<path d="M11231 16207 c-8 -11 -10 -410 -9 -1548 l3 -1534 90 -6 c50 -3 151
-3 225 0 l135 6 5 135 c3 93 9 135 17 135 6 0 27 -20 46 -45 67 -87 222 -186
368 -234 143 -47 354 -57 524 -24 150 28 263 72 370 143 171 114 327 316 399
514 52 144 61 202 60 406 0 146 -4 208 -18 270 -25 112 -81 257 -135 345 -54
90 -203 247 -285 302 -131 87 -288 149 -427 168 -107 15 -282 15 -356 0 -85
-17 -210 -59 -273 -93 -93 -50 -180 -117 -217 -168 -20 -28 -41 -48 -47 -46
-8 3 -12 182 -16 643 l-5 639 -221 3 c-178 2 -223 0 -233 -11z m1334 -1387
c101 -39 167 -81 241 -154 98 -98 146 -196 179 -371 19 -98 16 -190 -9 -305
-33 -152 -102 -277 -205 -372 -67 -62 -178 -120 -271 -142 -93 -22 -230 -20
-326 4 -174 45 -302 135 -397 281 -38 59 -78 169 -96 265 -22 120 -8 296 32
410 63 177 184 303 357 372 94 38 126 42 280 39 133 -3 164 -7 215 -27z"/>
<path d="M25960 16124 c-25 -14 -53 -33 -64 -42 -32 -29 -66 -110 -73 -171 -7
-76 9 -141 50 -199 23 -33 48 -52 92 -73 90 -41 138 -45 210 -18 78 29 158
105 176 169 15 52 14 123 -1 180 -16 59 -68 120 -130 152 -47 24 -66 28 -135
28 -67 0 -87 -4 -125 -26z"/>
<path d="M16793 15852 c-10 -6 -13 -86 -15 -323 l-3 -314 -210 -5 -210 -5 -3
-177 -2 -178 142 -1 c79 -1 168 -1 198 -1 99 0 90 62 90 -611 1 -626 6 -725
48 -834 42 -110 139 -209 258 -264 91 -41 203 -59 371 -59 112 0 162 5 223 20
96 24 166 54 172 72 2 7 1 56 -3 108 -4 52 -8 130 -8 173 -1 42 -5 77 -9 77
-5 0 -37 -14 -73 -32 -56 -28 -75 -32 -170 -36 -133 -6 -193 11 -253 72 -41
41 -59 83 -85 199 -7 30 -11 232 -11 572 0 508 1 525 19 535 12 6 129 10 309
10 223 0 291 3 293 13 2 6 3 87 1 180 l-3 167 -298 0 c-237 0 -301 3 -310 13
-7 9 -12 115 -13 323 l-3 309 -215 2 c-118 2 -221 -1 -227 -5z"/>
<path d="M23415 15848 c-3 -7 -6 -152 -7 -323 l-3 -310 -205 -5 -205 -5 -3
-177 -2 -178 199 0 c150 0 201 -3 209 -13 7 -9 12 -222 15 -662 4 -683 2 -658
48 -785 20 -56 75 -135 121 -175 24 -20 75 -51 113 -70 106 -50 190 -65 368
-65 131 0 169 4 252 25 112 28 160 53 160 81 0 91 -19 345 -26 349 -4 3 -23
-4 -41 -15 -99 -61 -285 -80 -392 -39 -39 14 -65 32 -87 60 -63 79 -62 76 -65
709 -1 381 1 579 8 588 8 9 83 12 314 12 l304 0 -2 178 -3 177 -299 3 c-218 2
-303 6 -314 15 -12 10 -14 36 -8 163 4 84 4 224 0 313 l-7 161 -219 0 c-166 0
-220 -3 -223 -12z"/>
<path d="M14665 15290 c-108 -25 -165 -45 -260 -92 -169 -85 -309 -202 -420
-353 -93 -125 -138 -224 -186 -405 -18 -71 -22 -113 -22 -250 -1 -177 10 -252
60 -400 32 -96 69 -168 131 -255 75 -106 135 -168 231 -239 98 -72 176 -114
289 -155 157 -58 215 -66 472 -66 223 1 241 2 345 28 132 34 326 125 412 193
132 106 207 192 286 329 98 169 139 339 138 570 0 77 -6 163 -12 190 -59 263
-154 442 -321 607 -76 76 -200 160 -313 213 -108 50 -292 105 -355 105 l-30 0
0 -218 0 -219 57 -14 c120 -28 275 -136 356 -247 137 -187 179 -424 115 -642
-22 -73 -43 -118 -95 -197 -106 -162 -271 -265 -486 -303 -84 -15 -206 -6
-302 22 -155 45 -303 148 -384 267 -79 116 -131 279 -131 411 0 106 37 253 91
360 34 69 115 162 188 217 67 51 208 123 240 123 12 0 31 5 42 10 18 10 19 23
19 220 l0 210 -37 -1 c-21 0 -74 -9 -118 -19z"/>
<path d="M18920 15235 c-130 -24 -202 -48 -297 -96 -170 -87 -312 -233 -416
-429 -54 -99 -94 -220 -113 -340 -18 -107 -17 -309 0 -420 17 -106 56 -223
108 -319 71 -134 205 -295 298 -358 156 -106 357 -163 575 -163 219 0 406 56
555 165 19 14 68 58 108 98 59 58 74 69 82 57 5 -8 10 -92 10 -186 0 -139 -4
-186 -20 -250 -40 -156 -153 -297 -299 -373 -70 -36 -109 -49 -244 -80 -67
-16 -217 -14 -320 4 -193 34 -350 94 -484 186 -68 46 -103 56 -103 30 0 -6
-32 -59 -71 -118 -39 -60 -82 -129 -95 -155 l-24 -46 51 -37 c66 -47 224 -127
314 -159 188 -67 360 -95 590 -97 244 -2 458 43 640 134 93 46 178 109 253
186 58 60 144 194 182 281 32 75 67 205 88 325 15 91 17 196 17 1115 l0 1015
-227 3 -228 2 0 -92 c0 -111 -10 -198 -21 -198 -5 0 -50 42 -101 93 -95 95
-160 138 -283 185 -33 13 -100 30 -150 38 -108 16 -286 16 -375 -1z m350 -385
c78 -10 165 -37 230 -72 108 -58 223 -175 274 -280 47 -96 66 -172 73 -288 4
-75 1 -116 -16 -195 -29 -138 -77 -231 -166 -320 -56 -57 -90 -81 -175 -123
-158 -78 -290 -99 -430 -68 -146 32 -238 83 -328 181 -56 62 -116 167 -146
255 -8 25 -20 87 -27 138 -10 75 -10 109 0 185 18 125 34 184 73 264 23 49 56
91 113 148 96 96 192 149 305 170 95 17 117 17 220 5z"/>
<path d="M21605 15244 c-134 -20 -359 -102 -458 -168 -68 -45 -207 -186 -264
-268 -49 -69 -97 -159 -120 -222 -8 -23 -25 -84 -39 -136 -46 -180 -42 -453
11 -634 44 -152 147 -325 266 -445 90 -90 189 -156 308 -203 129 -52 226 -76
372 -89 197 -18 382 1 563 58 150 47 266 118 416 255 l62 57 -127 123 c-70 68
-134 125 -142 126 -8 2 -36 -17 -63 -42 -54 -50 -171 -129 -210 -141 -14 -4
-29 -11 -35 -15 -18 -14 -128 -39 -218 -48 -62 -7 -117 -6 -195 3 -59 7 -130
21 -159 29 -61 19 -183 98 -234 153 -66 70 -108 143 -140 244 -17 54 -29 111
-27 126 l3 28 818 3 817 2 1 28 c1 15 1 90 0 167 -2 110 -7 162 -27 245 -34
142 -74 241 -142 350 -45 71 -162 192 -233 241 -68 46 -174 98 -249 121 -30
10 -77 25 -105 34 -37 12 -97 17 -235 19 -102 2 -198 1 -215 -1z m272 -365
c147 -20 234 -60 323 -149 88 -87 141 -196 155 -317 l7 -63 -597 0 -597 0 5
38 c16 116 71 231 152 315 92 95 221 158 365 177 82 11 101 11 187 -1z"/>
<path d="M27610 15240 c-118 -15 -214 -45 -334 -103 -113 -55 -175 -97 -258
-176 -174 -165 -292 -391 -326 -624 -4 -29 -7 -119 -6 -202 1 -160 15 -248 61
-385 45 -133 134 -270 252 -387 65 -65 222 -165 321 -206 260 -106 632 -115
915 -22 248 81 444 246 574 483 131 239 163 567 85 868 -45 174 -128 311 -276
456 -54 54 -129 115 -166 137 -93 56 -210 105 -322 136 -82 23 -119 27 -275
30 -99 2 -209 0 -245 -5z m377 -409 c84 -22 185 -75 255 -134 74 -62 146 -170
182 -271 20 -56 36 -173 36 -261 0 -110 -19 -221 -54 -305 -31 -78 -109 -192
-164 -240 -76 -67 -169 -117 -262 -141 -72 -18 -103 -21 -205 -16 -98 4 -134
10 -195 32 -89 33 -204 109 -264 176 -53 59 -119 184 -139 264 -37 149 -46
246 -28 327 6 24 15 68 21 98 17 81 95 233 152 296 66 71 166 136 258 167 64
22 94 25 205 26 96 0 149 -4 202 -18z"/>
<path d="M25867 15204 c-3 -3 -6 -471 -7 -1040 0 -980 0 -1033 17 -1042 22
-11 413 -15 429 -5 9 6 13 288 15 1048 l4 1040 -226 3 c-124 1 -228 0 -232 -4z"/>
<path d="M25015 13646 c-59 -28 -118 -86 -139 -138 -24 -56 -30 -139 -16 -199
22 -92 66 -146 154 -191 52 -26 67 -30 125 -26 36 2 83 12 103 22 50 24 112
86 138 137 30 59 38 170 16 236 -22 67 -75 126 -141 157 -42 20 -69 26 -122
25 -49 0 -82 -7 -118 -23z"/>
</g>
</svg>
